<svg width="16" height="16" viewBox="0 0 16 16" fill="none" xmlns="http://www.w3.org/2000/svg">
<path fill-rule="evenodd" clip-rule="evenodd" d="M10.4321 2.55317C10.4321 4.21892 11.7844 5.56927 13.4526 5.56927C13.6363 5.56836 13.8195 5.55073 14 5.51659V11.4961C14 14.0117 12.5161 15.5 9.99682 15.5H4.50977C1.98388 15.5 0.5 14.0117 0.5 11.4961V6.01707C0.5 3.50146 1.98388 2 4.50977 2H10.4849C10.4494 2.18225 10.4317 2.36751 10.4321 2.55317ZM8.86248 10.1724L11.0059 7.40659V7.39341C11.1894 7.14685 11.1425 6.79917 10.9003 6.60976C10.7831 6.51926 10.6342 6.48009 10.4875 6.50119C10.3408 6.52229 10.209 6.60185 10.1221 6.72171L8.3151 9.04634L6.25745 7.42634C6.13997 7.33482 5.99053 7.29441 5.84286 7.31424C5.69519 7.33406 5.56174 7.41245 5.47264 7.53171L3.25672 10.3898C3.17883 10.4868 3.13689 10.6078 3.13801 10.7322C3.12515 10.9836 3.2839 11.212 3.52428 11.2879C3.76466 11.3637 4.02603 11.268 4.16023 11.0549L6.01343 8.6578L8.07108 10.2712C8.18811 10.3656 8.33854 10.4083 8.4878 10.3897C8.63705 10.3711 8.77231 10.2927 8.86248 10.1724Z" fill="#A8A8A8"/>
<circle opacity="0.4" cx="13.625" cy="2.375" r="1.875" fill="#A8A8A8"/>
</svg>
