<svg width="16" height="16" viewBox="0 0 16 16" fill="none" xmlns="http://www.w3.org/2000/svg">
<path opacity="0.4" fill-rule="evenodd" clip-rule="evenodd" d="M3.43262 14.4413C3.43262 13.8113 3.94262 13.3013 4.57262 13.3013C5.19512 13.3013 5.70512 13.8113 5.70512 14.4413C5.70512 15.0638 5.19512 15.5738 4.57262 15.5738C3.94262 15.5738 3.43262 15.0638 3.43262 14.4413ZM11.8701 14.4413C11.8701 13.8113 12.3801 13.3013 13.0101 13.3013C13.6326 13.3013 14.1426 13.8113 14.1426 14.4413C14.1426 15.0638 13.6326 15.5738 13.0101 15.5738C12.3801 15.5738 11.8701 15.0638 11.8701 14.4413Z" fill="#A8A8A8"/>
<path fill-rule="evenodd" clip-rule="evenodd" d="M14.1431 3.76151C14.6006 3.76151 14.9006 3.91901 15.2006 4.26401C15.5006 4.60901 15.5531 5.10401 15.4856 5.55326L14.7731 10.4733C14.6381 11.419 13.8281 12.1158 12.8756 12.1158H4.69306C3.69556 12.1158 2.87056 11.3508 2.78806 10.3615L2.09806 2.18576L0.965557 1.99076C0.665557 1.93826 0.455557 1.64576 0.508057 1.34576C0.560557 1.03826 0.853057 0.83576 1.16056 0.88076L2.94931 1.15076C3.20431 1.19651 3.39181 1.40576 3.41431 1.66076L3.55681 3.34076C3.57931 3.58151 3.77431 3.76151 4.01431 3.76151H14.1431ZM9.59806 7.66076H11.6756C11.9906 7.66076 12.2381 7.40576 12.2381 7.09826C12.2381 6.78326 11.9906 6.53576 11.6756 6.53576H9.59806C9.28306 6.53576 9.03556 6.78326 9.03556 7.09826C9.03556 7.40576 9.28306 7.66076 9.59806 7.66076Z" fill="#A8A8A8"/>
</svg>
