<svg width="16" height="16" viewBox="0 0 16 16" fill="none" xmlns="http://www.w3.org/2000/svg">
<path opacity="0.4" d="M0.5 3.83525C0.5 1.997 2.02268 0.5 3.8934 0.5H7.61423C9.48114 0.5 11 1.9925 11 3.82775V12.1648C11 14.0037 9.47732 15.5 7.60584 15.5H3.88653C2.01886 15.5 0.5 14.0075 0.5 12.1722V11.4672V3.83525Z" fill="#A8A8A8"/>
<path d="M15.3339 7.59104L13.1996 5.40929C12.979 5.18429 12.624 5.18429 12.4041 5.41079C12.185 5.63729 12.1857 6.00254 12.4056 6.22754L13.575 7.42229H12.4538H6.16107C5.85063 7.42229 5.59863 7.68104 5.59863 7.99979C5.59863 8.31929 5.85063 8.57729 6.16107 8.57729H13.575L12.4056 9.77204C12.1857 9.99704 12.185 10.3623 12.4041 10.5888C12.5144 10.702 12.6583 10.759 12.803 10.759C12.9461 10.759 13.09 10.702 13.1996 10.5903L15.3339 8.40929C15.4398 8.30054 15.4997 8.15354 15.4997 7.99979C15.4997 7.84679 15.4398 7.69979 15.3339 7.59104Z" fill="#A8A8A8"/>
</svg>
