<svg width="16" height="16" viewBox="0 0 16 16" fill="none" xmlns="http://www.w3.org/2000/svg">
<path d="M8.0088 10.1223C6.80545 10.1223 5.83203 9.18477 5.83203 8.00727C5.83203 6.82977 6.80545 5.88477 8.0088 5.88477C9.21216 5.88477 10.1626 6.82977 10.1626 8.00727C10.1626 9.18477 9.21216 10.1223 8.0088 10.1223Z" fill="#A8A8A8"/>
<path opacity="0.4" d="M14.9226 9.7775C14.777 9.5525 14.57 9.3275 14.3018 9.185C14.0871 9.08 13.9492 8.9075 13.8265 8.705C13.4356 8.06 13.6656 7.2125 14.3171 6.83C15.0836 6.4025 15.3288 5.45 14.8843 4.7075L14.3707 3.8225C13.9339 3.08 12.9758 2.8175 12.217 3.2525C11.5425 3.6125 10.6764 3.3725 10.2855 2.735C10.1628 2.525 10.0938 2.3 10.1092 2.075C10.1322 1.7825 10.0402 1.505 9.90223 1.28C9.61864 0.815 9.10511 0.5 8.53792 0.5H7.4572C6.89768 0.515 6.38414 0.815 6.10055 1.28C5.95492 1.505 5.87061 1.7825 5.88594 2.075C5.90127 2.3 5.83229 2.525 5.70965 2.735C5.31875 3.3725 4.45264 3.6125 3.78582 3.2525C3.01935 2.8175 2.06893 3.08 1.62438 3.8225L1.11084 4.7075C0.673957 5.45 0.919227 6.4025 1.67803 6.83C2.32953 7.2125 2.55947 8.06 2.17623 8.705C2.04594 8.9075 1.90797 9.08 1.69336 9.185C1.43276 9.3275 1.20282 9.5525 1.08019 9.7775C0.796592 10.2425 0.811922 10.8275 1.09551 11.315L1.62438 12.215C1.90797 12.695 2.43683 12.995 2.98869 12.995C3.24929 12.995 3.55588 12.92 3.80115 12.77C3.99276 12.6425 4.2227 12.5975 4.47564 12.5975C5.23444 12.5975 5.87061 13.22 5.88594 13.9625C5.88594 14.825 6.59109 15.5 7.48019 15.5H8.52259C9.40403 15.5 10.1092 14.825 10.1092 13.9625C10.1322 13.22 10.7683 12.5975 11.5271 12.5975C11.7724 12.5975 12.0024 12.6425 12.2016 12.77C12.4469 12.92 12.7458 12.995 13.0141 12.995C13.5583 12.995 14.0871 12.695 14.3707 12.215L14.9073 11.315C15.1832 10.8125 15.2062 10.2425 14.9226 9.7775Z" fill="#A8A8A8"/>
</svg>
