<svg width="16" height="16" viewBox="0 0 16 16" fill="none" xmlns="http://www.w3.org/2000/svg">
<path opacity="0.4" d="M8.73223 1.33521L10.4021 4.69092C10.5251 4.93404 10.7599 5.10288 11.0307 5.1404L14.7815 5.68667C15.0006 5.71744 15.1994 5.833 15.3336 6.00934C15.4664 6.18343 15.5234 6.40404 15.4912 6.6209C15.4649 6.80099 15.3802 6.96757 15.2504 7.09514L12.5325 9.72973C12.3337 9.91357 12.2437 10.186 12.2917 10.4523L12.9609 14.1562C13.0321 14.6035 12.7358 15.0252 12.2917 15.11C12.1087 15.1392 11.9212 15.1085 11.7561 15.0244L8.41041 13.2813C8.1621 13.156 7.86879 13.156 7.62049 13.2813L4.27477 15.0244C3.86368 15.2428 3.35432 15.0942 3.12552 14.689C3.04075 14.5277 3.01075 14.3438 3.0385 14.1645L3.70765 10.4599C3.75566 10.1942 3.66489 9.92033 3.46685 9.73648L0.749013 7.10339C0.425693 6.79123 0.415941 6.27722 0.727258 5.95381C0.734009 5.94706 0.741511 5.93955 0.749013 5.93205C0.87804 5.80073 1.04758 5.71744 1.23062 5.69568L4.98142 5.14865C5.25148 5.11038 5.48628 4.94305 5.61006 4.69842L7.2199 1.33521C7.36318 1.04706 7.66025 0.867723 7.98282 0.875227H8.08334C8.36315 0.908994 8.60695 1.08233 8.73223 1.33521Z" fill="#A8A8A8"/>
<path d="M7.99401 13.1878C7.84873 13.1923 7.7072 13.2314 7.5799 13.3012L4.25054 15.0404C3.84317 15.2348 3.35567 15.0839 3.12728 14.6943C3.04266 14.5352 3.01195 14.3528 3.04041 14.1741L3.70538 10.4774C3.75031 10.2086 3.66045 9.93542 3.465 9.74627L0.745953 7.11386C0.423201 6.79785 0.417211 6.27917 0.733223 5.95566C0.737716 5.95115 0.74146 5.9474 0.745953 5.94365C0.874754 5.81604 1.041 5.73197 1.21997 5.7057L4.97392 5.15325C5.24575 5.11872 5.48164 4.94908 5.60145 4.70288L7.23318 1.29734C7.3882 1.02261 7.68549 0.858979 8 0.876243C7.99401 1.09918 7.99401 13.0362 7.99401 13.1878Z" fill="#A8A8A8"/>
</svg>
