<svg width="16" height="14" viewBox="0 0 16 14" fill="none" xmlns="http://www.w3.org/2000/svg">
<path fill-rule="evenodd" clip-rule="evenodd" d="M15.4973 4.28134H12.3213C10.8433 4.28394 9.646 5.45136 9.64333 6.89242C9.64133 8.33674 10.84 9.50935 12.3213 9.5113H15.5V9.74076C15.5 12.2602 13.9727 13.75 11.388 13.75H4.61267C2.02733 13.75 0.5 12.2602 0.5 9.74076V4.25339C0.5 1.73397 2.02733 0.25 4.61267 0.25H11.3853C13.97 0.25 15.4973 1.73397 15.4973 4.25339V4.28134ZM4.05467 4.2755H8.28467H8.28733H8.29267C8.60933 4.27419 8.86533 4.02264 8.864 3.71324C8.86267 3.40448 8.604 3.15488 8.28733 3.15618H4.05467C3.74 3.15748 3.48467 3.40644 3.48333 3.71389C3.482 4.02264 3.738 4.27419 4.05467 4.2755Z" fill="#A8A8A8"/>
<path opacity="0.4" d="M11.0281 7.22231C11.1849 7.93569 11.8104 8.43761 12.5244 8.42456H14.9619C15.259 8.42456 15.5 8.17849 15.5 7.87434V5.97567C15.4994 5.67217 15.259 5.42546 14.9619 5.4248H12.4671C11.6548 5.42742 10.9987 6.10164 11 6.93251C11 7.02976 11.0096 7.12701 11.0281 7.22231Z" fill="#A8A8A8"/>
<circle cx="12.5" cy="6.9248" r="0.75" fill="#A8A8A8"/>
</svg>
